<?xml version="1.0" encoding="utf-8"?>
<!DOCTYPE svg PUBLIC "-//W3C//DTD SVG 20010904//EN" "http://www.w3.org/TR/2001/REC-SVG-20010904/DTD/svg10.dtd">
<svg version="1.0" xmlns="http://www.w3.org/2000/svg" width="1200pt" height="630pt" viewBox="0 0 1200 630" style="" preserveAspectRatio="xMidYMid meet">
<g fill="#000000FF" stroke="#000000FF">
<path d="M 690.500 157.390 C 686.100 158.113 678.675 159.877 674.000 161.310 C 665.177 164.013 652.500 170.889 652.500 172.972 C 652.500 173.629 652.156 173.822 651.735 173.402 C 649.890 171.556 638.495 185.612 634.225 195.000 C 627.312 210.202 629.772 233.553 639.680 246.769 C 641.028 248.567 642.609 249.741 643.195 249.380 C 643.797 249.007 644.067 249.298 643.817 250.048 C 643.257 251.730 645.054 253.510 653.136 259.277 C 664.529 267.408 681.635 274.215 704.000 279.519 C 727.800 285.163 738.164 289.226 743.318 294.930 C 750.040 302.370 750.637 312.020 744.863 319.872 C 740.700 325.532 734.922 328.684 726.238 330.031 C 707.432 332.949 691.910 324.847 685.620 308.829 C 684.179 305.161 683.000 301.419 683.000 300.514 C 683.000 299.609 682.594 298.111 682.099 297.184 C 681.254 295.607 679.340 295.604 651.849 297.145 C 635.707 298.050 622.416 298.837 622.313 298.895 C 621.774 299.198 623.464 307.604 625.730 315.887 C 627.143 321.049 629.914 328.179 631.888 331.732 C 645.751 356.674 664.844 366.624 703.451 369.025 C 723.488 370.271 746.544 368.908 753.500 366.067 C 754.600 365.617 758.200 364.471 761.500 363.519 C 768.547 361.487 779.247 356.087 783.500 352.417 C 785.150 350.993 787.091 349.495 787.813 349.089 C 788.535 348.683 789.288 347.484 789.486 346.425 C 789.685 345.366 789.881 344.907 789.923 345.405 C 789.966 345.903 790.872 345.521 791.937 344.557 C 794.515 342.224 795.601 343.103 796.413 348.178 C 796.784 350.501 797.449 352.873 797.891 353.450 C 798.333 354.028 799.436 356.828 800.342 359.673 C 801.249 362.518 804.273 368.843 807.062 373.730 C 825.734 406.434 852.142 426.076 886.248 432.627 C 894.150 434.145 895.997 434.831 895.998 436.250 C 895.999 437.213 895.640 438.000 895.200 438.000 C 893.814 438.000 884.251 453.283 882.051 459.013 C 880.893 462.031 879.522 465.400 879.004 466.500 C 876.708 471.384 873.891 485.559 872.813 497.653 C 869.912 530.209 876.544 558.822 891.905 580.028 C 897.033 587.107 903.208 593.277 905.403 593.516 C 906.556 593.642 906.911 593.802 906.191 593.872 C 901.670 594.313 919.672 605.834 932.000 610.390 C 946.711 615.826 957.805 617.446 980.500 617.471 C 998.638 617.492 1002.795 617.196 1011.000 615.298 C 1032.832 610.247 1047.102 602.468 1060.850 588.125 C 1067.540 581.145 1075.651 568.399 1077.952 561.250 C 1078.705 558.913 1079.923 557.000 1080.660 557.000 C 1081.749 557.000 1082.000 562.346 1082.000 585.500 L 1082.000 614.000 1141.000 614.000 L 1200.000 614.000 1200.000 589.500 L 1200.000 565.000 1173.250 564.985 C 1158.538 564.976 1146.050 564.639 1145.500 564.235 C 1144.848 563.756 1144.500 536.344 1144.500 485.500 L 1144.500 407.500 1113.265 407.236 L 1082.031 406.972 1081.765 435.736 C 1081.592 454.487 1081.152 464.328 1080.500 464.006 C 1079.950 463.734 1078.175 460.584 1076.555 457.006 C 1072.990 449.131 1065.733 438.410 1064.190 438.738 C 1063.575 438.869 1063.302 438.376 1063.584 437.642 C 1064.096 436.309 1051.543 424.134 1046.875 421.436 C 1041.129 418.115 1026.540 411.000 1025.476 411.000 C 1024.833 411.000 1023.001 410.368 1021.404 409.596 C 1019.807 408.824 1015.239 407.658 1011.254 407.006 C 1007.268 406.354 1003.776 405.447 1003.494 404.990 C 1003.212 404.534 1004.223 403.239 1005.740 402.113 C 1007.258 400.988 1009.400 399.400 1010.500 398.586 C 1018.544 392.630 1024.947 386.723 1024.370 385.789 C 1023.950 385.111 1024.154 384.977 1024.902 385.439 C 1027.095 386.795 1049.803 362.109 1048.421 359.872 C 1047.989 359.173 1048.119 358.956 1048.740 359.340 C 1050.719 360.563 1065.213 337.376 1070.518 324.500 C 1077.467 307.635 1079.920 297.120 1080.719 280.778 C 1081.431 266.198 1079.827 253.472 1075.767 241.500 C 1072.707 232.475 1064.546 215.791 1062.886 215.167 C 1062.399 214.983 1062.000 214.402 1062.000 213.874 C 1062.000 212.000 1053.758 202.031 1052.733 202.665 C 1052.141 203.031 1051.988 202.828 1052.379 202.195 C 1053.889 199.752 1037.657 184.843 1024.878 176.934 C 1005.361 164.856 985.652 160.198 959.000 161.366 C 944.298 162.010 943.112 162.185 928.000 165.950 C 917.239 168.630 895.068 176.892 893.000 178.992 C 892.725 179.271 890.250 180.560 887.500 181.855 C 864.313 192.773 833.342 220.635 817.863 244.500 C 812.917 252.126 807.964 260.828 805.854 265.598 L 803.733 270.391 801.617 267.878 C 800.452 266.495 798.375 263.982 797.000 262.292 C 791.164 255.122 780.578 248.017 767.500 242.493 C 757.503 238.271 734.660 231.563 721.500 228.986 C 718.200 228.340 711.262 226.648 706.081 225.227 C 698.054 223.025 696.004 222.012 692.200 218.367 C 687.850 214.199 687.749 213.962 688.225 209.006 C 688.847 202.539 692.955 197.177 699.105 194.804 C 704.205 192.837 715.516 192.488 722.900 194.072 C 732.200 196.066 740.989 205.057 742.525 214.148 C 742.896 216.343 743.851 218.389 744.646 218.695 C 746.206 219.293 792.987 217.294 799.354 216.356 C 803.566 215.736 803.374 216.533 801.466 207.612 C 795.965 181.893 780.990 166.890 753.400 159.455 C 744.338 157.012 741.596 156.756 721.000 156.430 C 705.540 156.186 695.997 156.486 690.500 157.390 M 986.000 170.129 C 1005.241 172.964 1025.376 183.691 1040.750 199.296 C 1045.288 203.902 1049.000 207.519 1049.000 207.335 C 1049.000 207.151 1048.897 207.113 1048.771 207.250 C 1048.645 207.388 1050.622 210.425 1053.164 214.000 C 1063.473 228.498 1069.344 242.097 1072.509 258.815 C 1079.615 296.340 1060.728 342.193 1023.466 377.878 C 1018.124 382.993 1012.562 387.926 1011.105 388.839 C 1009.648 389.753 1005.950 392.413 1002.887 394.750 C 999.824 397.088 997.044 399.000 996.709 399.000 C 996.374 399.000 994.165 400.292 991.800 401.870 C 978.768 410.568 958.175 418.944 937.000 424.160 C 928.727 426.198 925.047 426.500 908.500 426.500 C 890.619 426.500 888.940 426.335 880.000 423.700 C 865.194 419.337 854.681 414.225 845.090 406.726 C 824.286 390.461 809.312 367.930 802.795 343.087 C 800.929 335.971 800.549 331.930 800.579 319.500 C 800.611 305.887 800.897 303.483 803.677 293.500 C 807.571 279.516 809.719 274.039 815.550 263.224 C 825.233 245.266 839.299 227.550 855.000 213.541 C 861.822 207.454 874.017 198.131 877.821 196.096 C 879.053 195.436 879.750 194.404 879.373 193.795 C 878.969 193.141 879.148 192.973 879.810 193.383 C 880.426 193.763 884.208 192.214 888.215 189.940 C 919.360 172.265 953.526 165.342 986.000 170.129 M 999.285 455.408 C 1011.445 461.445 1018.682 471.334 1022.133 486.629 C 1023.776 493.914 1023.825 524.844 1022.208 533.894 C 1018.254 556.016 1006.237 568.502 986.500 570.997 C 972.055 572.823 960.133 569.420 950.440 560.706 C 944.389 555.266 940.883 549.093 937.807 538.470 C 935.741 531.334 935.504 528.460 935.535 511.000 C 935.566 493.764 935.835 490.574 937.851 483.522 C 940.451 474.427 945.584 465.334 950.288 461.488 C 952.054 460.043 954.350 458.169 955.388 457.322 C 956.427 456.476 960.252 454.699 963.888 453.375 C 969.586 451.300 971.951 451.007 981.000 451.255 C 990.903 451.527 991.943 451.763 999.285 455.408 "/></g>
<g fill="#000000FF" stroke="#000000FF">
<path d="M 670.000 405.988 C 640.317 411.708 617.329 426.922 604.209 449.528 C 601.345 454.462 599.001 459.063 599.001 459.750 C 599.000 460.438 598.325 461.000 597.500 461.000 C 596.204 461.000 596.000 457.333 596.000 434.000 L 596.000 407.000 565.117 407.000 L 534.233 407.000 533.670 409.750 C 533.360 411.263 533.106 427.575 533.107 446.000 L 533.107 479.500 497.054 479.762 L 461.000 480.025 461.000 443.498 L 461.000 406.972 429.750 407.236 L 398.500 407.500 398.237 510.750 L 397.974 614.000 429.487 614.000 L 461.000 614.000 461.000 571.988 L 461.000 529.975 497.073 530.238 L 533.145 530.500 533.154 569.500 C 533.159 590.950 533.404 609.738 533.698 611.250 L 534.233 614.000 565.117 614.000 L 596.000 614.000 596.106 590.250 C 596.164 577.188 596.130 565.263 596.031 563.750 C 595.727 559.142 597.661 560.640 601.876 568.276 C 607.422 578.323 611.837 584.219 613.188 583.384 C 613.900 582.944 614.028 583.146 613.540 583.936 C 612.549 585.539 618.321 591.548 627.500 598.469 C 638.734 606.939 648.395 611.108 666.000 615.083 C 675.234 617.167 679.032 617.453 697.500 617.456 C 715.742 617.458 719.853 617.157 728.804 615.165 C 767.881 606.466 792.191 581.857 801.082 542.000 C 803.131 532.817 803.429 528.804 803.462 510.000 C 803.502 487.120 802.532 480.497 796.793 464.500 C 789.239 443.446 775.039 427.093 754.845 416.193 C 751.905 414.607 747.700 412.750 745.500 412.068 C 743.300 411.386 740.150 410.235 738.500 409.511 C 727.042 404.484 688.174 402.485 670.000 405.988 M 711.130 453.124 C 732.282 460.444 741.000 477.147 741.000 510.350 C 741.000 527.460 738.471 542.143 733.998 551.004 C 728.537 561.822 717.211 569.272 703.624 570.984 C 677.940 574.220 659.681 560.928 654.237 535.033 C 652.007 524.428 652.036 497.082 654.288 487.094 C 658.217 469.663 666.166 459.527 680.611 453.530 C 688.629 450.201 702.162 450.021 711.130 453.124 "/></g>
<g fill="#000000FF" stroke="#000000FF">
<path d="M 20.186 406.167 C 14.513 407.222 7.763 408.912 5.186 409.924 L 0.500 411.765 0.241 463.721 L -0.018 515.677 7.028 518.441 C 17.063 522.379 24.309 524.547 42.500 529.059 C 51.300 531.241 61.712 534.409 65.637 536.099 C 76.465 540.760 82.000 547.658 82.000 556.490 C 82.000 570.117 67.602 580.184 50.209 578.718 C 31.892 577.174 21.582 568.678 16.783 551.174 L 14.500 542.848 11.000 543.413 C 9.075 543.724 5.813 543.983 3.750 543.989 L 0.000 544.000 0.000 577.441 C 0.000 597.997 0.374 611.113 0.971 611.482 C 1.505 611.812 7.243 613.211 13.721 614.589 C 27.755 617.576 56.223 618.877 70.000 617.161 C 96.949 613.805 114.956 605.292 127.532 589.961 C 129.904 587.069 132.657 583.195 133.650 581.352 C 135.343 578.207 139.000 576.663 139.000 579.092 C 139.000 581.605 157.194 600.918 157.813 599.062 C 158.375 597.375 159.792 597.831 159.639 599.650 C 159.329 603.335 175.490 610.775 192.387 614.727 C 202.441 617.078 205.549 617.334 225.000 617.413 C 244.356 617.491 247.497 617.263 256.500 615.121 C 268.668 612.226 282.439 605.810 290.489 599.285 C 301.675 590.217 313.005 572.735 317.980 556.862 C 320.739 548.061 320.633 547.412 316.250 546.241 C 312.689 545.289 306.302 543.371 287.000 537.457 C 268.906 531.912 265.860 531.189 265.545 532.364 C 263.535 539.846 259.887 550.150 258.947 551.000 C 258.643 551.275 257.434 553.075 256.260 555.000 C 253.027 560.303 247.070 565.619 241.500 568.171 C 237.113 570.182 234.907 570.465 223.500 570.482 C 211.193 570.499 210.218 570.352 205.214 567.715 C 199.039 564.462 192.357 558.699 191.451 555.847 C 191.103 554.748 190.549 554.118 190.220 554.446 C 189.892 554.774 189.514 554.471 189.380 553.772 C 189.246 553.072 188.259 550.176 187.186 547.336 C 180.957 530.845 180.546 494.817 186.403 478.670 C 190.895 466.284 199.618 456.907 210.478 452.791 C 218.931 449.587 232.029 449.669 240.500 452.980 C 248.356 456.050 257.862 465.331 260.495 472.500 C 261.504 475.250 262.683 477.904 263.114 478.398 C 263.985 479.398 265.373 479.139 294.500 472.548 C 305.500 470.059 315.344 468.017 316.375 468.011 C 318.854 467.996 318.155 464.395 313.903 455.271 C 308.735 444.179 297.299 427.577 296.848 430.510 C 296.764 431.055 296.646 430.961 296.586 430.303 C 296.235 426.482 281.621 415.912 270.582 411.496 C 246.175 401.732 205.500 401.375 179.636 410.697 C 168.306 414.781 157.411 421.272 149.412 428.702 C 144.639 433.135 136.801 442.486 135.066 445.815 C 134.097 447.676 133.580 447.897 132.430 446.942 C 131.644 446.289 131.000 445.084 131.000 444.264 C 131.000 442.313 127.320 435.536 123.526 430.500 C 113.667 417.413 101.778 410.826 80.169 406.480 C 69.459 404.326 65.385 404.016 49.169 404.125 C 35.472 404.217 27.753 404.761 20.186 406.167 M 61.551 444.222 C 67.924 447.515 73.040 454.015 75.555 462.013 L 77.500 468.198 82.500 467.637 C 93.447 466.407 122.900 464.748 124.292 465.282 C 125.578 465.775 125.523 466.751 123.879 472.675 C 122.837 476.429 121.502 483.550 120.911 488.500 C 119.422 500.982 119.656 500.593 115.245 497.931 C 101.963 489.915 83.054 483.499 53.500 476.980 C 31.683 472.169 25.910 469.536 22.405 462.800 C 18.909 456.080 22.529 448.025 31.000 443.677 C 36.163 441.026 37.112 440.877 46.500 441.233 C 54.860 441.550 57.328 442.040 61.551 444.222 "/></g>
<g fill="#000000FF" stroke="#000000FF">
<path d="M 0.000 262.367 L 0.000 365.900 15.250 366.200 C 23.638 366.365 31.063 366.339 31.750 366.143 C 32.724 365.865 33.000 356.554 33.000 323.912 L 33.000 282.038 35.496 281.412 C 39.120 280.502 49.625 282.594 53.321 284.960 C 56.662 287.099 62.000 291.619 62.000 292.309 C 62.000 292.531 64.172 296.490 66.826 301.107 C 69.480 305.723 74.492 314.900 77.964 321.500 C 81.436 328.100 84.596 333.950 84.987 334.500 C 85.687 335.485 90.992 345.282 97.712 358.000 C 99.601 361.575 101.486 364.849 101.900 365.276 C 102.759 366.163 173.132 366.805 172.750 365.923 C 169.242 357.825 153.267 328.335 152.609 328.742 C 152.104 329.054 151.982 328.838 152.338 328.263 C 152.693 327.688 150.247 321.880 146.901 315.358 C 137.491 297.015 127.705 285.328 117.376 280.100 C 114.008 278.395 110.488 277.000 109.553 277.000 C 108.510 277.000 107.978 276.363 108.177 275.351 C 108.386 274.286 110.624 273.110 114.500 272.030 C 125.245 269.036 137.204 261.659 143.500 254.140 C 154.905 240.520 159.264 221.132 155.142 202.353 C 152.739 191.408 148.517 183.440 141.442 176.500 C 134.387 169.580 133.670 169.087 125.939 165.839 C 113.160 160.470 104.626 159.733 49.750 159.262 L 0.000 158.834 0.000 262.367 M 78.099 201.061 C 86.170 203.158 91.861 209.104 93.056 216.688 C 94.183 223.841 92.495 230.189 88.177 235.029 C 82.480 241.415 75.231 243.149 51.750 243.742 L 33.000 244.216 33.000 222.274 C 33.000 210.207 33.187 200.146 33.416 199.917 C 34.223 199.107 74.552 200.139 78.099 201.061 "/></g>
<g fill="#000000FF" stroke="#000000FF">
<path d="M 957.412 224.504 C 950.672 226.322 936.762 234.566 936.976 236.616 C 937.019 237.033 936.306 237.485 935.390 237.619 C 932.613 238.027 926.596 244.652 923.468 250.748 C 921.056 255.448 920.528 257.689 920.580 263.000 C 920.654 270.642 922.512 274.812 928.254 280.232 C 936.640 288.146 946.960 287.959 968.873 279.496 C 980.291 275.086 986.030 274.850 989.548 278.646 C 993.046 282.421 992.853 287.510 989.035 292.142 C 982.929 299.549 974.549 301.002 966.688 296.017 C 962.537 293.385 961.779 293.200 960.242 294.447 C 959.284 295.225 957.036 297.058 955.247 298.522 C 953.458 299.985 952.244 301.586 952.549 302.080 C 952.854 302.573 952.518 302.775 951.802 302.527 C 951.086 302.280 948.806 303.575 946.736 305.407 L 942.972 308.736 946.216 311.907 C 951.746 317.314 959.358 320.412 967.114 320.412 C 973.148 320.412 974.856 319.917 983.183 315.757 C 999.013 307.848 1008.311 298.895 1012.970 287.077 C 1015.552 280.526 1015.525 276.944 1012.837 268.984 C 1011.264 264.326 1009.415 261.320 1006.059 257.964 C 996.968 248.872 985.228 248.754 963.500 257.535 C 947.739 263.904 943.869 263.950 942.171 257.790 C 940.966 253.419 943.462 249.264 949.103 246.250 C 954.349 243.447 958.291 243.398 962.633 246.082 L 966.002 248.164 974.751 241.422 C 979.563 237.713 983.950 234.263 984.500 233.755 C 986.098 232.279 978.258 226.154 972.633 224.484 C 966.627 222.700 964.087 222.704 957.412 224.504 "/></g>
<g fill="#000000FF" stroke="#000000FF">
<path d="M 888.500 271.530 C 885.750 273.453 881.138 276.639 878.250 278.611 C 875.363 280.582 873.016 282.488 873.036 282.847 C 873.067 283.400 877.007 289.088 894.965 314.500 C 896.131 316.150 898.904 319.975 901.127 323.000 C 906.311 330.055 910.000 337.274 910.000 340.361 C 910.000 341.696 908.694 344.186 907.099 345.894 C 902.825 350.469 898.231 350.220 892.760 345.118 L 888.598 341.235 879.321 349.848 L 870.045 358.461 873.772 362.323 C 878.544 367.265 886.065 370.979 892.786 371.711 C 901.755 372.689 916.276 365.905 925.500 356.429 C 931.743 350.015 934.401 343.797 934.447 335.500 C 934.494 326.911 932.665 322.625 922.620 307.777 C 920.486 304.623 918.279 302.328 917.716 302.676 C 917.149 303.026 916.992 302.822 917.364 302.221 C 917.734 301.622 915.666 297.720 912.768 293.549 C 909.871 289.377 904.800 282.068 901.500 277.306 C 898.200 272.543 895.050 268.508 894.500 268.339 C 893.950 268.171 891.250 269.606 888.500 271.530 "/></g>
</svg>
